# xmcd
#
# Track frame offsets:
#	150
#	14050
#	27802
#	41660
#	52767
#	66087
#	76890
#	90902
#	102090
#	115832
#
# Disc length: 1691 seconds
#
# Revision: 2
# Processed by: cddbd v1.4b41PL2 Copyright (c) Steve Scherf et al.
# Submitted via: audiograbber 1.80
#
DISCID=6d06990a
DTITLE=Lefty Frizzell - American Originals
DYEAR=1900
DGENRE=
TTITLE0=Saginaw Michigan
TTITLE1=Mom and Dad's Waltz
TTITLE2=Long Black Veil
TTITLE3=A Little Unfair
TTITLE4=Don't Stay Away (Til Love Grows Cold)
TTITLE5=She's Gone Gone Gone
TTITLE6=Always Late (With Your Kisses)
TTITLE7=Look What Thoughts Will Do
TTITLE8=I Want To Be With You Always
TTITLE9=Forever (And Always)
EXTD=
EXTT0=
EXTT1=
EXTT2=
EXTT3=
EXTT4=
EXTT5=
EXTT6=
EXTT7=
EXTT8=
EXTT9=
PLAYORDER=
